
<svg width="1306px" height="1192px" viewBox="0 0 1306 1192" version="1.1" xmlns="http://www.w3.org/2000/svg" xmlns:xlink="http://www.w3.org/1999/xlink">
    <defs>
        <polygon id="path-1" points="174 214.261325 174 0.980951292 0.480528787 0.980951292 0.480528787 214.261325 174 214.261325"></polygon>
        <polygon id="path-3" points="45 0.107918754 45 88.5046 0.955494628 88.5046 0.955494628 0.107918754 45 0.107918754"></polygon>
        <polygon id="path-5" points="55 0.9797 55 90.2701977 0.144179072 90.2701977 0.144179072 0.9797 55 0.9797"></polygon>
        <polygon id="path-7" points="0 88.1167 0 0.1447 40.4125112 0.1447 40.4125112 88.1167 3.60551432e-16 88.1167"></polygon>
        <polygon id="path-9" points="18 0.6715 18 71.2895 0.133131216 71.2895 0.133131216 0.6715 18 0.6715"></polygon>
        <polygon id="path-11" points="144 0.247846591 144 204.617 0.0743454468 204.617 0.0743454468 0.247846591 144 0.247846591"></polygon>
        <polygon id="path-13" points="106 0.8945 106 159.1895 0.5692 159.1895 0.5692 0.8945"></polygon>
        <polygon id="path-15" points="114 0.2782 114 163.3852 0.3162 163.3852 0.3162 0.2782 114 0.2782"></polygon>
        <polygon id="path-17" points="5.57185049e-16 91.7437514 5.57185049e-16 0.3137 65.8686883 0.3137 65.8686883 91.7437514"></polygon>
    </defs>
    <g id="Page-1" stroke="none" stroke-width="1" fill="none" fill-rule="evenodd" opacity="0.1">
        <g transform="translate(0.000000, -1.000000)">
            <g id="Group-3" transform="translate(1132.000000, 338.830000)">
                <mask id="mask-2" fill="white">
                    <use xlink:href="#path-1"></use>
                </mask>
                <g id="Clip-2"></g>
                <path d="M174.0005,126.145 C173.2325,126.078 172.4655,126.011 171.6825,125.981 C148.1565,125.084 127.3615,117.918 110.9515,100.659 C95.9435,84.876 89.3895,65.487 88.5865,43.911 C87.7055,20.296 67.0535,0.496 44.0375,0.99 C20.3345,1.499 0.7155,21.269 0.4825,44.877 C0.2525,68.538 20.1805,88.865 44.1025,89.368 C91.3505,90.362 123.8755,122.761 126.3225,170.847 C127.2755,189.583 136.3095,203.477 153.8525,210.72 C160.8175,213.596 167.5135,214.682 174.0005,214.117 L174.0005,126.145 Z" id="Fill-1" fill="#52B9B4" mask="url(#mask-2)"></path>
            </g>
            <g id="Group-6" transform="translate(1261.000000, 340.830000)">
                <mask id="mask-4" fill="white">
                    <use xlink:href="#path-3"></use>
                </mask>
                <g id="Clip-5"></g>
                <path d="M0.9575,43.9966 C0.7255,67.6566 20.6545,87.9836 44.5745,88.4866 C44.7185,88.4896 44.8565,88.5006 45.0005,88.5046 L45.0005,0.1116 C44.8365,0.1136 44.6745,0.1056 44.5105,0.1086 C20.8095,0.6176 1.1875,20.3886 0.9575,43.9966" id="Fill-4" fill="#924392" mask="url(#mask-4)"></path>
            </g>
            <g id="Group-9" transform="translate(1251.000000, 217.830000)">
                <mask id="mask-6" fill="white">
                    <use xlink:href="#path-5"></use>
                </mask>
                <g id="Clip-8"></g>
                <path d="M3.688,29.7207 C-3.484,47.0957 0.454,62.7937 13.473,77.7597 C15.752,79.4477 18.842,82.2477 22.377,84.2737 C33.027,90.3797 44.576,91.5687 55.001,88.9877 L55.001,0.9797 C51.293,1.5717 47.486,1.9917 43.561,2.1917 C24.825,3.1447 10.932,12.1777 3.688,29.7207" id="Fill-7" fill="#7DB842" mask="url(#mask-6)"></path>
            </g>
            <path d="M831.1392,518.7953 C832.0922,537.5323 841.1252,551.4253 858.6682,558.6673 C876.0432,565.8413 891.7412,561.9033 906.7072,548.8833 C908.3952,546.6043 911.1962,543.5143 913.2212,539.9803 C929.8622,510.9543 910.1002,475.2103 876.4962,473.9293 C852.9732,473.0323 832.1782,465.8663 815.7682,448.6073 C800.7602,432.8243 794.2032,413.4353 793.4012,391.8583 C792.5222,368.2443 771.8682,348.4433 748.8542,348.9383 C725.1512,349.4473 705.5302,369.2173 705.2992,392.8253 C705.0692,416.4853 724.9962,436.8133 748.9182,437.3163 C796.1642,438.3103 828.6922,470.7093 831.1392,518.7953" id="Fill-10" fill="#7DB842"></path>
            <path d="M888.437,349.9784 C884.237,348.6394 879.818,347.9454 875.305,348.0424 C851.602,348.5514 831.981,368.3214 831.75,391.9294 C831.52,415.5904 851.448,435.9174 875.37,436.4204 C922.618,437.4144 955.143,469.8134 957.59,517.8994 C958.543,536.6364 967.577,550.5284 985.12,557.7724 C1002.495,564.9444 1018.192,561.0084 1033.159,547.9874 C1034.846,545.7084 1037.647,542.6184 1039.672,539.0844 C1056.313,510.0584 1036.551,474.3144 1002.95,473.0334 C979.424,472.1364 958.629,464.9704 942.219,447.7114 C935.138,440.2644 929.96,432.0074 926.359,423.1044 C922.327,413.1374 920.277,402.3594 919.852,390.9634 C919.145,371.9784 905.656,355.4704 888.437,349.9784" id="Fill-12" fill="#52B9B4"></path>
            <g id="Group-16" transform="translate(0.000000, 464.830000)">
                <mask id="mask-8" fill="white">
                    <use xlink:href="#path-7"></use>
                </mask>
                <g id="Clip-15"></g>
                <path d="M34.4058,66.0317 C50.6588,37.6817 32.1768,2.9427 -0.0002,0.1447 L-0.0002,88.1167 C9.6958,87.2727 18.9258,82.7367 27.8918,74.9347 C29.5798,72.6557 32.3798,69.5657 34.4058,66.0317" id="Fill-14" fill="#52B9B4" mask="url(#mask-8)"></path>
            </g>
            <path d="M66.4253,440.6078 C51.4183,424.8248 44.8623,405.4358 44.0593,383.8598 C43.1853,360.4128 22.8173,340.7368 0.0003,340.9418 L0.0003,429.3348 C47.0163,430.5148 79.3573,462.8558 81.7973,510.7958 C82.7503,529.5328 91.7833,543.4258 109.3263,550.6698 C126.7013,557.8408 142.3993,553.9048 157.3653,540.8838 C159.0533,538.6048 161.8533,535.5148 163.8793,531.9808 C180.5203,502.9548 160.7573,467.2108 127.1553,465.9298 C103.6313,465.0328 82.8363,457.8668 66.4253,440.6078" id="Fill-17" fill="#924392"></path>
            <path d="M397.1333,528.9701 C397.1333,505.0171 377.7163,485.6001 353.7643,485.6001 C329.8123,485.6001 310.3953,505.0171 310.3953,528.9701 C310.3953,552.8691 329.7293,572.2511 353.6103,572.3341 L353.9193,572.3341 C377.7993,572.2511 397.1333,552.8691 397.1333,528.9701" id="Fill-19" fill="#7DB842"></path>
            <path d="M320.3564,87.7362 C344.3084,87.7362 363.7254,68.3192 363.7254,44.3672 C363.7254,20.4152 344.3084,0.9982 320.3564,0.9982 C296.4044,0.9982 276.9874,20.4152 276.9874,44.3672 C276.9874,68.3192 296.4044,87.7362 320.3564,87.7362" id="Fill-21" fill="#52B9B4"></path>
            <path d="M917.6802,136.4399 C924.8522,119.0649 920.9142,103.3669 907.8952,88.4009 C907.0882,87.8039 906.1762,87.0649 905.1842,86.2729 C903.3692,84.8269 901.2762,83.1969 898.9912,81.8879 C869.9652,65.2459 834.2212,85.0089 832.9402,118.6109 C832.0432,142.1349 824.8772,162.9299 807.6172,179.3409 C791.8362,194.3479 772.4462,200.9039 750.8692,201.7079 C750.1432,201.7349 749.4182,201.7819 748.7002,201.8459 C749.9082,201.9139 751.1192,201.9739 752.3482,201.9999 C776.2702,202.5029 796.1982,222.8299 795.9672,246.4909 C795.9012,253.2679 794.2302,259.7239 791.3302,265.5039 C794.3792,259.6549 796.1822,253.0919 796.3262,246.1909 C797.3212,198.9429 829.7212,166.4169 877.8072,163.9699 C883.2662,163.6919 888.3012,162.7069 892.8942,161.0459 C904.0622,157.0069 912.5472,148.8709 917.6802,136.4399" id="Fill-23" fill="#924392"></path>
            <path d="M1029.9302,172.9154 C1036.2672,168.3694 1041.2872,161.9324 1044.7622,153.5164 C1051.9362,136.1414 1047.9982,120.4424 1034.9792,105.4774 C1032.7002,103.7894 1029.6102,100.9894 1026.0752,98.9634 C1025.2642,98.4984 1024.4482,98.0724 1023.6272,97.6644 C1000.4832,86.1384 973.8912,96.8234 963.9852,118.6864 C961.6702,123.7924 960.2602,129.5024 960.0242,135.6864 C959.4542,150.6204 956.3542,164.4514 949.7532,176.7614 C945.9552,183.8434 941.0042,190.4234 934.7012,196.4164 C918.9182,211.4244 899.5302,217.9794 877.9532,218.7834 C862.4512,219.3604 848.5922,228.4604 841.0402,241.1554 C837.0882,247.7984 834.8642,255.4254 835.0342,263.3314 C835.5412,287.0344 855.3132,306.6534 878.9202,306.8854 C899.7352,307.0894 917.9612,291.6894 922.3912,271.6974 C922.9962,268.9634 923.3502,266.1444 923.4102,263.2674 C924.1512,228.0804 942.3172,201.0694 971.4012,188.5554 C976.5292,186.3484 981.9912,184.5854 987.7622,183.3154 C993.2112,182.1174 998.9282,181.3484 1004.8892,181.0454 C1014.6372,180.5494 1023.0592,177.8454 1029.9302,172.9154" id="Fill-25" fill="#D53668"></path>
            <path d="M490.5464,178.8188 C488.5994,178.9178 486.6874,179.0848 484.7934,179.2808 C485.8484,179.3928 486.9174,179.4728 488.0024,179.5148 C511.5254,180.4118 532.3204,187.5778 548.7324,204.8368 C563.7384,220.6198 570.2954,240.0088 571.0974,261.5848 C571.9784,285.1998 592.6304,304.9998 615.6464,304.5058 C639.3484,303.9968 658.9694,284.2268 659.1994,260.6188 C659.4304,236.9578 639.5034,216.6308 615.5824,216.1278 C569.8134,215.1648 537.8594,184.7328 533.6774,139.1178 C533.2044,143.0888 532.1324,147.1408 530.4194,151.2898 C523.1764,168.8328 509.2834,177.8658 490.5464,178.8188" id="Fill-27" fill="#E55D24"></path>
            <path d="M448.6274,118.8676 C445.9324,125.3946 444.9254,132.1226 445.3734,138.6176 C445.5094,136.9126 445.6134,135.1956 445.6804,133.4606 C445.8794,128.2326 446.9154,123.3406 448.6274,118.8676" id="Fill-29" fill="#E55D24"></path>
            <path d="M752.3481,201.9994 C751.1191,201.9734 749.9081,201.9144 748.7001,201.8454 C703.4361,199.2974 672.5121,167.3554 670.1271,120.5204 C669.1741,101.7834 660.1411,87.8904 642.5981,80.6474 C625.2231,73.4744 609.5251,77.4114 594.5591,90.4324 C592.8711,92.7114 590.0711,95.8014 588.0461,99.3354 C571.4041,128.3614 591.1671,164.1054 624.7691,165.3864 C648.2931,166.2834 669.0881,173.4494 685.4981,190.7084 C700.5061,206.4914 707.0631,225.8804 707.8661,247.4564 C708.7441,271.0714 729.3991,290.8714 752.4121,290.3774 C769.3121,290.0144 784.1291,279.8574 791.3301,265.5034 C794.2301,259.7244 795.9011,253.2674 795.9671,246.4904 C796.1981,222.8294 776.2701,202.5024 752.3481,201.9994" id="Fill-31" fill="#F0B734"></path>
            <path d="M620.1416,345.8119 C572.8936,344.8179 540.3676,312.4189 537.9196,264.3329 C536.9666,245.5959 527.9336,231.7029 510.3906,224.4599 C493.0156,217.2869 477.3176,221.2239 462.3516,234.2449 C460.6636,236.5239 457.8636,239.6139 455.8376,243.1479 C439.1966,272.1739 458.9596,307.9179 492.5616,309.1989 C516.0856,310.0959 536.8806,317.2619 553.2916,334.5209 C568.2986,350.3039 574.8546,369.6929 575.6576,391.2689 C576.5376,414.8839 597.1906,434.6839 620.2056,434.1899 C643.9086,433.6809 663.5276,413.9109 663.7606,390.3029 C663.9906,366.6419 644.0626,346.3149 620.1416,345.8119" id="Fill-33" fill="#D53668"></path>
            <path d="M411.8643,391.0033 C410.9103,372.2663 401.8773,358.3733 384.3343,351.1303 C366.9593,343.9573 351.2613,347.8943 336.2953,360.9153 C334.6073,363.1943 331.8073,366.2843 329.7823,369.8183 C313.1403,398.8443 332.9033,434.5883 366.5053,435.8693 C390.0293,436.7663 410.8243,443.9323 427.2353,461.1913 C442.2423,476.9743 448.7983,496.3633 449.6013,517.9393 C450.4813,541.5543 471.1343,561.3553 494.1493,560.8603 C517.8523,560.3513 537.4723,540.5813 537.7033,516.9733 C537.9343,493.3123 518.0063,472.9853 494.0853,472.4823 C446.8373,471.4883 414.3113,439.0893 411.8643,391.0033" id="Fill-35" fill="#E55D24"></path>
            <path d="M320.6895,261.1049 C320.5525,254.7289 321.9795,248.5359 324.6065,242.8929 C326.2195,239.2199 328.2895,235.8489 330.7445,232.8439 C329.2995,234.6569 327.6725,236.7489 326.3655,239.0299 C321.5705,247.3939 319.8125,256.3119 320.5225,264.8049 C320.6005,263.8419 320.6705,262.8739 320.7265,261.8999 C320.7165,261.6349 320.6955,261.3719 320.6895,261.1049" id="Fill-37" fill="#52B9B4"></path>
            <path d="M334.8271,228.4931 C334.1761,229.0221 333.5261,229.5631 332.8781,230.1271 C332.3291,230.8681 331.6571,231.7031 330.9371,232.6031 C332.1471,231.1431 333.4501,229.7741 334.8271,228.4931" id="Fill-39" fill="#52B9B4"></path>
            <path d="M365.7134,304.7758 C364.5474,304.8348 363.3994,304.9268 362.2514,305.0218 C362.5324,305.0378 362.8054,305.0698 363.0884,305.0808 C386.6114,305.9778 407.4074,313.1438 423.8174,330.4028 C438.8254,346.1858 445.3804,365.5748 446.1844,387.1508 C447.0644,410.7658 467.7164,430.5658 490.7324,430.0718 C514.4354,429.5628 534.0554,409.7928 534.2864,386.1848 C534.5174,362.5238 514.5884,342.1968 490.6684,341.6938 C445.0844,340.7348 413.2134,310.5398 408.8254,265.2328 C408.3424,269.1518 407.2764,273.1518 405.5864,277.2468 C398.3434,294.7898 384.4504,303.8228 365.7134,304.7758" id="Fill-41" fill="#52B9B4"></path>
            <path d="M112.4727,304.8598 C111.3277,304.8488 110.1957,304.7778 109.0707,304.6778 C110.1987,304.8028 111.3407,304.8978 112.5037,304.9418 C136.0277,305.8388 156.8227,313.0058 173.2337,330.2638 C188.2407,346.0478 194.7967,365.4358 195.5987,387.0118 C195.7547,391.1828 196.5377,395.2298 197.8307,399.0708 C196.6397,395.2468 195.9457,391.2198 195.8567,387.0618 C195.3627,364.0468 215.1627,343.3938 238.7777,342.5138 C241.0817,342.4278 243.3537,342.2618 245.6057,342.0418 C243.7937,341.7688 241.9527,341.5948 240.0837,341.5548 C192.8357,340.5608 160.3087,308.1618 157.8617,260.0758 C157.7677,258.2478 157.5757,256.4808 157.3277,254.7458 C157.1467,256.8818 157.0097,259.0398 156.9637,261.2418 C156.4607,285.1628 136.1337,305.0908 112.4727,304.8598" id="Fill-43" fill="#52B9B4"></path>
            <path d="M113.2354,216.664 C111.5894,216.675 109.9584,216.789 108.3394,217.01 C109.3874,216.891 110.4414,216.797 111.5064,216.758 C112.0864,216.736 112.6584,216.694 113.2354,216.664" id="Fill-45" fill="#52B9B4"></path>
            <path d="M114.5322,94.1816 C90.8712,93.9506 70.5442,113.8786 70.0412,137.7996 C69.1282,181.1926 41.7152,212.1476 0.0002,218.8096 L0.0002,306.8176 C17.9882,302.3646 32.6172,286.6536 33.4282,265.3796 C34.3252,241.8556 41.4912,221.0606 58.7502,204.6496 C74.5332,189.6426 93.9222,183.0866 115.4982,182.2836 C139.1132,181.4036 158.9132,160.7506 158.4192,137.7356 C157.9102,114.0326 138.1402,94.4126 114.5322,94.1816" id="Fill-47" fill="#7DB842"></path>
            <path d="M386.8984,222.6938 C390.4324,224.7198 393.5224,227.5198 395.8014,229.2078 C404.3064,238.9828 408.9324,249.0688 409.1224,259.7318 C410.6224,215.0998 440.3344,183.8978 484.7934,179.2808 C486.6874,179.0848 488.5994,178.9178 490.5464,178.8188 C509.2834,177.8658 523.1764,168.8328 530.4194,151.2898 C532.1324,147.1408 533.2044,143.0888 533.6774,139.1178 C535.1874,126.4608 530.5454,114.6438 520.6344,103.2508 C518.3554,101.5628 515.2654,98.7628 511.7314,96.7368 C487.2214,82.6858 457.9234,94.5908 448.6274,118.8678 C446.9154,123.3408 445.8794,128.2328 445.6804,133.4608 C445.6134,135.1948 445.5094,136.9128 445.3734,138.6168 C443.6674,160.0258 436.3444,178.9898 420.3584,194.1908 C404.5754,209.1978 385.1864,215.7538 363.6104,216.5568 C360.3254,216.6798 357.1194,217.1968 354.0264,218.0378 C364.5154,215.3758 376.1644,216.5398 386.8984,222.6938" id="Fill-49" fill="#7DB842"></path>
            <path d="M320.7266,261.9003 C320.7746,261.0753 320.8156,260.2493 320.8476,259.4173 C321.0766,253.4223 322.4186,247.8783 324.6066,242.8923 C321.9786,248.5363 320.5526,254.7283 320.6896,261.1053 C320.6956,261.3713 320.7166,261.6343 320.7266,261.9003" id="Fill-51" fill="#7DB842"></path>
            <path d="M195.8564,387.0614 C195.9454,391.2194 196.6394,395.2474 197.8304,399.0714 C203.4314,417.0464 220.2764,430.4254 239.7434,430.6154 C263.4044,430.8464 283.7314,410.9184 284.2344,386.9974 C285.2044,340.8944 316.0834,308.8244 362.2514,305.0214 C363.3984,304.9274 364.5474,304.8344 365.7134,304.7754 C384.4504,303.8224 398.3434,294.7894 405.5864,277.2464 C407.2764,273.1524 408.3424,269.1524 408.8254,265.2324 C409.0534,263.3814 409.1544,261.5474 409.1224,259.7314 C408.9324,249.0694 404.3064,238.9824 395.8014,229.2074 C393.5224,227.5194 390.4324,224.7194 386.8984,222.6934 C376.1644,216.5404 364.5154,215.3754 354.0264,218.0374 C346.8624,219.8554 340.2414,223.4574 334.8274,228.4934 C333.4494,229.7734 332.1474,231.1434 330.9374,232.6034 C330.8714,232.6824 330.8104,232.7644 330.7444,232.8444 C328.2894,235.8484 326.2194,239.2194 324.6064,242.8924 C322.4184,247.8784 321.0764,253.4224 320.8474,259.4174 C320.8154,260.2484 320.7744,261.0754 320.7264,261.9004 C320.6704,262.8734 320.6004,263.8414 320.5224,264.8054 C318.7814,286.1194 311.4544,305.0014 295.5254,320.1474 C281.4274,333.5524 264.4464,340.1994 245.6064,342.0414 C243.3544,342.2624 241.0814,342.4274 238.7774,342.5134 C215.1624,343.3934 195.3624,364.0464 195.8564,387.0614" id="Fill-53" fill="#924392"></path>
            <path d="M259.6274,96.9379 C230.6014,80.2969 194.8574,100.0599 193.5764,133.6619 C192.6794,157.1859 185.5134,177.9809 168.2544,194.3919 C152.8964,208.9959 134.1164,215.5799 113.2354,216.6639 C112.6584,216.6939 112.0864,216.7359 111.5064,216.7579 C110.4414,216.7969 109.3874,216.8909 108.3384,217.0099 C86.1494,219.5199 68.1134,239.3289 68.5854,261.3059 C69.0694,283.8589 86.9954,302.7029 109.0704,304.6779 C110.1954,304.7779 111.3274,304.8489 112.4724,304.8599 C136.1334,305.0909 156.4604,285.1629 156.9634,261.2419 C157.0094,259.0399 157.1464,256.8819 157.3274,254.7459 C161.0334,211.0399 192.5974,181.3539 238.4424,179.0199 C257.1794,178.0669 271.0724,169.0339 278.3154,151.4909 C285.4884,134.1159 281.5514,118.4179 268.5304,103.4519 C266.2514,101.7639 263.1614,98.9639 259.6274,96.9379" id="Fill-55" fill="#F0B734"></path>
            <path d="M242.7217,217.2563 C218.7697,217.2563 199.3527,236.6733 199.3527,260.6253 C199.3527,284.5773 218.7697,303.9943 242.7217,303.9943 C266.6737,303.9943 286.0907,284.5773 286.0907,260.6253 C286.0907,236.6733 266.6737,217.2563 242.7217,217.2563" id="Fill-57" fill="#D53668"></path>
            <path d="M114.5083,340.2568 C90.5563,340.2568 71.1393,359.6738 71.1393,383.6258 C71.1393,407.5778 90.5563,426.9948 114.5083,426.9948 C138.4603,426.9948 157.8773,407.5778 157.8773,383.6258 C157.8773,359.6738 138.4603,340.2568 114.5083,340.2568" id="Fill-59" fill="#E55D24"></path>
            <path d="M708.3384,960.3124 C684.6354,960.8204 665.0164,980.5914 664.7854,1004.1994 C664.5534,1027.8594 684.4814,1048.1874 708.4024,1048.6894 C755.6514,1049.6834 788.1764,1082.0824 790.6254,1130.1674 C791.5784,1148.9064 800.6094,1162.7984 818.1524,1170.0414 C835.5274,1177.2144 851.2274,1173.2774 866.1924,1160.2574 C867.8814,1157.9784 870.6804,1154.8884 872.7054,1151.3534 C889.3484,1122.3284 869.5844,1086.5834 835.9834,1085.3024 C812.4594,1084.4064 791.6644,1077.2404 775.2524,1059.9804 C760.2464,1044.1974 753.6904,1024.8084 752.8874,1003.2324 C752.0064,979.6174 731.3544,959.8184 708.3384,960.3124" id="Fill-61" fill="#52B9B4"></path>
            <path d="M904.7271,1061.0995 C889.7191,1045.3165 883.1631,1025.9275 882.3601,1004.3515 C881.4811,980.7365 860.8271,960.9375 837.8131,961.4315 C814.1101,961.9395 794.4891,981.7105 794.2581,1005.3185 C794.0281,1028.9785 813.9561,1049.3065 837.8751,1049.8085 C885.1231,1050.8025 917.6511,1083.2015 920.0981,1131.2875 C921.0511,1150.0255 930.0841,1163.9175 947.6271,1171.1605 C965.0021,1178.3335 980.7001,1174.3965 995.6661,1161.3745 C997.3541,1159.0975 1000.1551,1156.0075 1002.1801,1152.4725 C1018.8211,1123.4475 999.0591,1087.7035 965.4561,1086.4215 C941.9321,1085.5255 921.1371,1078.3595 904.7271,1061.0995" id="Fill-63" fill="#924392"></path>
            <path d="M1235.4341,1149.4609 C1235.4341,1125.5099 1216.0181,1106.0919 1192.0651,1106.0919 C1168.1141,1106.0919 1148.6961,1125.5099 1148.6961,1149.4609 C1148.6961,1173.4139 1168.1141,1192.8299 1192.0651,1192.8299 C1216.0181,1192.8299 1235.4341,1173.4139 1235.4341,1149.4609" id="Fill-65" fill="#7DB842"></path>
            <path d="M1158.6567,708.2284 C1182.6097,708.2284 1202.0257,688.8124 1202.0257,664.8594 C1202.0257,640.9084 1182.6097,621.4904 1158.6567,621.4904 C1134.7057,621.4904 1115.2887,640.9084 1115.2887,664.8594 C1115.2887,688.8124 1134.7057,708.2284 1158.6567,708.2284" id="Fill-67" fill="#52B9B4"></path>
            <path d="M1286.9272,739.3652 C1284.2342,745.8882 1283.2282,752.6132 1283.6752,759.1032 C1283.8102,757.4012 1283.9142,755.6852 1283.9812,753.9532 C1284.1802,748.7262 1285.2152,743.8372 1286.9272,739.3652" id="Fill-69" fill="#E55D24"></path>
            <g id="Group-73" transform="translate(1288.000000, 849.830000)">
                <mask id="mask-10" fill="white">
                    <use xlink:href="#path-9"></use>
                </mask>
                <g id="Clip-72"></g>
                <path d="M6.1392,13.8105 C-5.7508,34.5495 0.9512,58.7115 18.0002,71.2895 L18.0002,0.6715 C16.2062,1.9555 14.4242,3.3655 12.6532,4.9065 C10.9652,7.1855 8.1642,10.2755 6.1392,13.8105" id="Fill-71" fill="#D53668" mask="url(#mask-10)"></path>
            </g>
            <g id="Group-76" transform="translate(1162.000000, 967.830000)">
                <mask id="mask-12" fill="white">
                    <use xlink:href="#path-11"></use>
                </mask>
                <g id="Clip-75"></g>
                <path d="M88.1646,43.666 C87.2116,24.928 78.1786,11.035 60.6356,3.793 C43.2606,-3.381 27.5626,0.557 12.5966,13.578 C10.9086,15.857 8.1076,18.947 6.0826,22.48 C-10.5584,51.506 9.2036,87.25 42.8076,88.531 C66.3306,89.428 87.1256,96.594 103.5356,113.854 C118.5436,129.637 125.1006,149.025 125.9026,170.602 C126.4126,184.299 133.5826,196.703 144.0006,204.617 L144.0006,120.904 C111.3696,110.579 90.1236,82.158 88.1646,43.666" id="Fill-74" fill="#E55D24" mask="url(#mask-12)"></path>
            </g>
            <g id="Group-79" transform="translate(1200.000000, 884.830000)">
                <mask id="mask-14" fill="white">
                    <use xlink:href="#path-13"></use>
                </mask>
                <g id="Clip-78"></g>
                <path d="M4.0142,40.4395 C2.8542,40.4985 1.7102,40.5895 0.5692,40.6845 C0.8432,40.6995 1.1122,40.7315 1.3892,40.7425 C24.9122,41.6405 45.7072,48.8065 62.1192,66.0645 C77.1252,81.8475 83.6822,101.2365 84.4852,122.8125 C85.0502,137.9615 93.7582,151.5315 106.0002,159.1895 L106.0002,74.1185 C72.9112,65.1375 50.7332,38.1285 47.1262,0.8945 C46.6432,4.8145 45.5772,8.8145 43.8872,12.9085 C36.6452,30.4515 22.7522,39.4845 4.0142,40.4395" id="Fill-77" fill="#52B9B4" mask="url(#mask-14)"></path>
            </g>
            <path d="M1158.9907,881.5976 C1158.8537,875.2146 1160.2827,869.0166 1162.9157,863.3686 C1164.5297,859.6936 1166.6017,856.3226 1169.0607,853.3176 C1167.6117,855.1336 1165.9777,857.2326 1164.6647,859.5216 C1159.8687,867.8866 1158.1117,876.8076 1158.8227,885.3026 C1158.9017,884.3376 1158.9717,883.3686 1159.0277,882.3936 C1159.0167,882.1276 1158.9967,881.8646 1158.9907,881.5976" id="Fill-80" fill="#52B9B4"></path>
            <path d="M1173.1362,848.9775 C1172.4822,849.5095 1171.8292,850.0525 1171.1782,850.6195 C1170.6282,851.3625 1169.9542,852.1995 1169.2342,853.1015 C1170.4482,851.6365 1171.7542,850.2625 1173.1362,848.9775" id="Fill-82" fill="#52B9B4"></path>
            <path d="M951.5454,837.1552 C949.8934,837.1672 948.2544,837.2812 946.6294,837.5032 C947.6814,837.3842 948.7384,837.2902 949.8074,837.2502 C950.3914,837.2282 950.9654,837.1852 951.5454,837.1552" id="Fill-84" fill="#52B9B4"></path>
            <path d="M1077.0776,963.0058 C1079.3826,962.9198 1081.6556,962.7538 1083.9076,962.5338 C1082.0956,962.2598 1080.2536,962.0858 1078.3846,962.0468 C1031.1356,961.0528 998.6096,928.6538 996.1626,880.5678 C996.0686,878.7408 995.8756,876.9748 995.6296,875.2398 C995.4476,877.3758 995.3106,879.5328 995.2646,881.7348 C994.7626,905.6538 974.4336,925.5818 950.7736,925.3518 C949.6296,925.3398 948.4966,925.2708 947.3716,925.1698 C948.5006,925.2948 949.6406,925.3898 950.8036,925.4338 C974.3286,926.3298 995.1236,933.4958 1011.5336,950.7558 C1026.5416,966.5388 1033.0986,985.9278 1033.9006,1007.5038 C1034.0556,1011.6698 1034.8376,1015.7138 1036.1286,1019.5518 C1034.9386,1015.7308 1034.2466,1011.7068 1034.1566,1007.5528 C1033.6626,984.5388 1053.4636,963.8848 1077.0776,963.0058" id="Fill-86" fill="#52B9B4"></path>
            <path d="M996.7192,758.2284 C996.2112,734.5254 976.4422,714.9044 952.8322,714.6734 C929.1722,714.4434 908.8442,734.3714 908.3422,758.2904 C907.3482,805.5394 874.9492,838.0664 826.8642,840.5134 C808.1252,841.4664 794.2332,850.4994 786.9902,868.0424 C779.8172,885.4174 783.7542,901.1154 796.7762,916.0824 C799.0532,917.7694 802.1452,920.5704 805.6782,922.5934 C834.7032,939.2364 870.4482,919.4744 871.7292,885.8714 C872.6252,862.3474 879.7912,841.5524 897.0512,825.1424 C912.8342,810.1344 932.2232,803.5784 953.7992,802.7754 C977.4142,801.8964 997.2132,781.2424 996.7192,758.2284" id="Fill-88" fill="#7DB842"></path>
            <g id="Group-92" transform="translate(1192.000000, 716.830000)">
                <mask id="mask-16" fill="white">
                    <use xlink:href="#path-15"></use>
                </mask>
                <g id="Clip-91"></g>
                <path d="M94.9272,22.5352 C93.2152,27.0072 92.1802,31.8962 91.9812,37.1232 C91.9142,38.8552 91.8102,40.5712 91.6752,42.2732 C89.9692,63.6832 82.6472,82.6502 66.6582,97.8532 C50.8752,112.8592 31.4872,119.4162 9.9102,120.2192 C6.6212,120.3422 3.4112,120.8602 0.3162,121.7032 C10.8072,119.0372 22.4612,120.2002 33.1992,126.3572 C36.7332,128.3812 39.8232,131.1812 42.1022,132.8692 C50.6042,142.6412 55.2312,152.7252 55.4232,163.3852 C56.7252,124.7572 79.1602,96.1942 114.0002,86.2162 L114.0002,0.2782 C105.5142,5.1652 98.6292,12.8622 94.9272,22.5352" id="Fill-90" fill="#7DB842" mask="url(#mask-16)"></path>
            </g>
            <path d="M1159.0278,882.3935 C1159.0758,881.5685 1159.1178,880.7425 1159.1488,879.9105 C1159.3778,873.9085 1160.7218,868.3585 1162.9158,863.3685 C1160.2828,869.0165 1158.8538,875.2145 1158.9908,881.5975 C1158.9968,881.8645 1159.0168,882.1275 1159.0278,882.3935" id="Fill-93" fill="#7DB842"></path>
            <path d="M1225.1997,843.1874 C1214.4617,837.0304 1202.8067,835.8674 1192.3157,838.5334 C1185.1597,840.3504 1178.5467,843.9494 1173.1367,848.9774 C1171.7547,850.2624 1170.4477,851.6364 1169.2337,853.1014 C1169.1747,853.1714 1169.1197,853.2464 1169.0607,853.3174 C1166.6017,856.3224 1164.5297,859.6934 1162.9157,863.3684 C1160.7217,868.3584 1159.3777,873.9084 1159.1487,879.9104 C1159.1177,880.7424 1159.0757,881.5684 1159.0277,882.3934 C1158.9717,883.3684 1158.9017,884.3374 1158.8227,885.3024 C1157.0817,906.6134 1149.7557,925.4944 1133.8267,940.6384 C1119.7277,954.0434 1102.7487,960.6914 1083.9077,962.5344 C1081.6557,962.7534 1079.3827,962.9194 1077.0777,963.0054 C1053.4637,963.8844 1033.6627,984.5394 1034.1567,1007.5524 C1034.2467,1011.7074 1034.9387,1015.7304 1036.1287,1019.5514 C1041.7247,1037.5334 1058.5737,1050.9164 1078.0447,1051.1074 C1101.7047,1051.3374 1122.0327,1031.4104 1122.5347,1007.4904 C1123.5047,961.3824 1154.3907,929.3084 1200.5687,925.5144 C1201.7107,925.4194 1202.8537,925.3284 1204.0137,925.2694 C1222.7527,924.3144 1236.6447,915.2814 1243.8867,897.7384 C1245.5777,893.6444 1246.6427,889.6444 1247.1267,885.7244 C1247.3547,883.8704 1247.4567,882.0334 1247.4237,880.2144 C1247.2307,869.5554 1242.6037,859.4714 1234.1017,849.6994 C1231.8227,848.0114 1228.7327,845.2104 1225.1997,843.1874" id="Fill-95" fill="#924392"></path>
            <path d="M995.2642,881.7343 C995.3112,879.5333 995.4482,877.3763 995.6292,875.2403 C999.3332,831.5333 1030.8972,801.8443 1076.7432,799.5133 C1095.4802,798.5583 1109.3722,789.5253 1116.6172,771.9823 C1123.7882,754.6073 1119.8532,738.9103 1106.8312,723.9433 C1104.5522,722.2553 1101.4622,719.4553 1097.9292,717.4313 C1068.9022,700.7893 1033.1592,720.5523 1031.8772,754.1543 C1030.9812,777.6773 1023.8152,798.4723 1006.5552,814.8823 C991.1992,829.4853 972.4222,836.0703 951.5452,837.1553 C950.9652,837.1853 950.3912,837.2283 949.8072,837.2503 C948.7392,837.2903 947.6812,837.3833 946.6292,837.5033 C924.4462,840.0173 906.4142,859.8243 906.8872,881.7963 C907.3702,904.3503 925.2972,923.1953 947.3712,925.1703 C948.4962,925.2703 949.6292,925.3393 950.7742,925.3513 C974.4342,925.5823 994.7622,905.6543 995.2642,881.7343" id="Fill-97" fill="#F0B734"></path>
            <path d="M1081.0229,837.748 C1057.0709,837.748 1037.6549,857.166 1037.6549,881.117 C1037.6549,905.07 1057.0709,924.486 1081.0229,924.486 C1104.9739,924.486 1124.3919,905.07 1124.3919,881.117 C1124.3919,857.166 1104.9739,837.748 1081.0229,837.748" id="Fill-99" fill="#D53668"></path>
            <path d="M996.1782,1004.1171 C996.1782,980.1661 976.7622,960.7481 952.8092,960.7481 C928.8582,960.7481 909.4402,980.1661 909.4402,1004.1171 C909.4402,1028.0701 928.8582,1047.4861 952.8092,1047.4861 C976.7622,1047.4861 996.1782,1028.0701 996.1782,1004.1171" id="Fill-101" fill="#E55D24"></path>
            <path d="M280.498,1057.8085 C327.746,1058.8025 360.272,1091.2015 362.719,1139.2875 C363.673,1158.0235 372.706,1171.9175 390.249,1179.1605 C407.624,1186.3315 423.322,1182.3965 438.288,1169.3745 C439.976,1167.0955 442.776,1164.0055 444.801,1160.4725 C461.443,1131.4455 441.68,1095.7015 408.078,1094.4215 C384.554,1093.5235 363.759,1086.3575 347.348,1069.0995 C332.341,1053.3165 325.785,1033.9275 324.982,1012.3515 C324.102,988.7365 303.449,968.9355 280.434,969.4295 C256.731,969.9395 237.111,989.7105 236.88,1013.3165 C236.649,1036.9785 256.577,1057.3045 280.498,1057.8085" id="Fill-103" fill="#7DB842"></path>
            <path d="M420.5801,970.6571 C416.2121,969.1971 411.6011,968.4331 406.8851,968.5351 C383.1831,969.0431 363.5621,988.8121 363.3311,1012.4221 C363.1011,1036.0821 383.0281,1056.4101 406.9491,1056.9121 C454.1971,1057.9061 486.7231,1090.3041 489.1701,1138.3901 C490.1241,1157.1291 499.1571,1171.0211 516.7001,1178.2631 C534.0751,1185.4371 549.7731,1181.5001 564.7391,1168.4781 C566.4271,1166.2011 569.2271,1163.1091 571.2521,1159.5761 C587.8941,1130.5511 568.1311,1094.8061 534.5291,1093.5251 C511.0051,1092.6291 490.2101,1085.4631 473.7991,1068.2031 C466.7381,1060.7761 461.5681,1052.5421 457.9681,1043.6661 C453.9171,1033.6791 451.8581,1022.8781 451.4341,1011.4551 C450.7331,992.6781 437.5291,976.3261 420.5801,970.6571" id="Fill-105" fill="#52B9B4"></path>
            <path d="M327.5479,866.9823 C327.4819,873.7663 325.8069,880.2303 322.9009,886.0143 C325.9559,880.1623 327.7629,873.5913 327.9079,866.6833 C328.9019,819.4353 361.3009,786.9083 409.3869,784.4613 C415.0459,784.1723 420.2549,783.1343 424.9799,781.3613 C435.9009,777.2613 444.2049,769.1753 449.2599,756.9313 C456.4329,739.5563 452.4959,723.8593 439.4749,708.8923 C438.7369,708.3463 437.9069,707.6773 437.0109,706.9623 C435.1409,705.4683 432.9619,703.7513 430.5719,702.3803 C401.5459,685.7383 365.8019,705.5023 364.5209,739.1033 C363.6239,762.6273 356.4579,783.4213 339.1989,799.8343 C323.4159,814.8393 304.0269,821.3963 282.4509,822.1993 C281.7199,822.2263 280.9919,822.2733 280.2679,822.3373 C281.4809,822.4063 282.6969,822.4663 283.9299,822.4923 C307.8509,822.9943 327.7789,843.3223 327.5479,866.9823" id="Fill-107" fill="#924392"></path>
            <path d="M481.4551,797.0302 C477.6421,804.1972 472.6521,810.8512 466.2831,816.9082 C450.4991,831.9162 431.1101,838.4722 409.5351,839.2752 C394.0341,839.8522 380.1771,848.9492 372.6241,861.6412 C368.6701,868.2852 366.4441,875.9142 366.6141,883.8222 C367.1221,907.5252 386.8921,927.1462 410.5001,927.3772 C431.3141,927.5802 449.5421,912.1812 453.9711,892.1912 C454.5771,889.4562 454.9311,886.6372 454.9921,883.7592 C455.7361,848.3872 474.0841,821.2692 503.4361,808.8432 C508.6081,806.6532 514.1271,804.9292 519.9461,803.6872 C525.2151,802.5622 530.7271,801.8292 536.4711,801.5372 C546.3491,801.0352 554.8641,798.2622 561.7841,793.2062 C567.9911,788.6712 572.9191,782.3022 576.3441,774.0082 C583.5171,756.6332 579.5801,740.9352 566.5591,725.9682 C564.2791,724.2812 561.1891,721.4802 557.6561,719.4572 C556.9811,719.0702 556.3001,718.7232 555.6201,718.3762 C532.7471,706.7012 506.3871,716.8592 496.0581,738.1502 C493.4551,743.5142 491.8561,749.5742 491.6041,756.1792 C491.0381,771.0212 487.9731,784.7762 481.4551,797.0302" id="Fill-109" fill="#D53668"></path>
            <path d="M22.127,799.3105 C20.18,799.4105 18.27,799.5765 16.376,799.7725 C17.43,799.8845 18.499,799.9645 19.583,800.0055 C43.106,800.9045 63.901,808.0705 80.313,825.3285 C95.319,841.1115 101.876,860.4995 102.678,882.0765 C103.559,905.6915 124.211,925.4925 147.227,924.9985 C170.929,924.4885 190.549,904.7185 190.78,881.1115 C191.011,857.4495 171.084,837.1235 147.163,836.6195 C101.394,835.6565 69.439,805.2235 65.258,759.6095 C64.785,763.5805 63.713,767.6325 62,771.7815 C54.757,789.3245 40.864,798.3575 22.127,799.3105" id="Fill-111" fill="#E55D24"></path>
            <path d="M217.0796,811.2011 C232.0866,826.9841 238.6426,846.3731 239.4456,867.9491 C240.3256,891.5641 260.9786,911.3631 283.9936,910.8691 C300.8856,910.5081 315.6956,900.3591 322.9006,886.0141 C325.8066,880.2301 327.4816,873.7661 327.5476,866.9821 C327.7786,843.3221 307.8506,822.9941 283.9296,822.4921 C282.6966,822.4671 281.4806,822.4061 280.2676,822.3381 C235.0116,819.7841 204.0916,787.8441 201.7076,741.0131 C200.7546,722.2751 191.7216,708.3831 174.1786,701.1401 C156.8036,693.9671 141.1056,697.9041 126.1396,710.9241 C124.4516,713.2031 121.6516,716.2931 119.6256,719.8281 C102.9846,748.8531 122.7476,784.5971 156.3496,785.8791 C179.8736,786.7751 200.6686,793.9411 217.0796,811.2011" id="Fill-113" fill="#F0B734"></path>
            <path d="M84.8721,955.0136 C99.8791,970.7946 106.4351,990.1856 107.2381,1011.7616 C108.1181,1035.3746 128.7711,1055.1756 151.7861,1054.6816 C175.4891,1054.1736 195.1091,1034.4026 195.3401,1010.7946 C195.5711,987.1346 175.6431,966.8066 151.7221,966.3046 C104.4741,965.3106 71.9481,932.9096 69.5001,884.8246 C68.5471,866.0876 59.5141,852.1956 41.9711,844.9506 C26.9281,838.7426 13.1431,840.8656 0.0001,849.9956 L0.0001,921.6346 C6.6851,926.3596 14.8841,929.3376 24.1421,929.6916 C47.6661,930.5876 68.4611,937.7536 84.8721,955.0136" id="Fill-115" fill="#D53668"></path>
            <path d="M69.2842,1137.4648 C69.5152,1113.8048 49.5872,1093.4768 25.6662,1092.9748 C16.5192,1092.7818 7.9322,1091.3998 0.0002,1088.9668 L0.0002,1172.9978 C7.4062,1178.3988 16.3722,1181.5528 25.7302,1181.3518 C49.4332,1180.8438 69.0532,1161.0738 69.2842,1137.4648" id="Fill-117" fill="#E55D24"></path>
            <g id="Group-121" transform="translate(0.000000, 958.830000)">
                <mask id="mask-18" fill="white">
                    <use xlink:href="#path-17"></use>
                </mask>
                <g id="Clip-120"></g>
                <path d="M65.8667,47.8477 C66.0977,24.1857 46.1697,3.8597 22.2487,3.3557 C14.3987,3.1907 6.9667,2.1407 -0.0003,0.3137 L-0.0003,85.6417 C6.6757,89.6457 14.3517,91.9057 22.3127,91.7347 C46.0157,91.2247 65.6357,71.4547 65.8667,47.8477" id="Fill-119" fill="#52B9B4" mask="url(#mask-18)"></path>
            </g>
            <path d="M22.127,799.3105 C40.864,798.3575 54.757,789.3245 62,771.7815 C63.713,767.6325 64.785,763.5805 65.258,759.6095 C66.768,746.9525 62.127,735.1355 52.215,723.7445 C49.936,722.0545 46.846,719.2555 43.312,717.2285 C28.843,708.9335 12.707,709.6875 0,716.6895 L0,802.8345 C5.196,801.3925 10.665,800.3655 16.376,799.7725 C18.27,799.5765 20.18,799.4105 22.127,799.3105" id="Fill-122" fill="#7DB842"></path>
        </g>
    </g>
</svg>