<svg width="161px" height="36px" viewBox="0 0 161 36" version="1.1" xmlns="http://www.w3.org/2000/svg" xmlns:xlink="http://www.w3.org/1999/xlink">
    <g id="logo_horisontal" fill-rule="nonzero">
        <polygon id="Shape" fill="#36314B" points="79.75 9.72 69.7 33.07 65.22 33.07 68.29 25.92 61.71 9.72 66.45 9.72 69 16.84 70.57 21.48 72.27 16.94 75.27 9.72 79.78 9.72"></polygon>
        <path d="M85.5,9.72 L85.5,11.93 C86.8808067,10.3893785 88.8414329,9.49423118 90.91,9.46 C94.79,9.46 97.91,12.37 97.91,17.55 L97.91,26.2 L93.82,26.2 L93.82,17.57 C93.82,15.06 92.45,13.16 89.82,13.16 C88.6423833,13.1901561 87.527884,13.6988095 86.7335033,14.5686657 C85.9391227,15.438522 85.5334382,16.5944878 85.61,17.77 L85.61,26.19 L81.61,26.19 L81.61,9.72 L85.5,9.72 Z" id="Shape" fill="#36314B"></path>
        <path d="M114.21,26.19 L114.21,23.79 C113.27,25.73 110.7,26.66 108.86,26.7 C103.98,26.7 100.37,23.7 100.37,17.95 C100.37,12.2 104.15,9.3 108.96,9.33 C111.056491,9.24072139 113.047293,10.2531866 114.21,12 L114.21,9.72 L118.21,9.72 L118.21,26.19 L114.21,26.19 L114.21,26.19 Z M104.45,17.94 C104.370238,19.2678819 104.854523,20.5677709 105.783676,21.5197722 C106.712829,22.4717736 108.000573,22.9874875 109.33,22.94 C115.75,22.94 115.75,12.94 109.33,12.94 C107.997852,12.8829857 106.704408,13.3956866 105.773095,14.3499006 C104.841782,15.3041146 104.360647,16.6096301 104.45,17.94 Z" id="Combined-Shape" fill="#36314B"></path>
        <path d="M126.07,9.72 L126.07,12 C127.324711,10.3104841 129.315781,9.32797509 131.42,9.36 C133.712712,9.29880467 135.927191,10.1959418 137.530831,11.83564 C139.134471,13.4753382 139.982153,15.7092156 139.87,18 C139.87,22.81 136.87,26.62 131.55,26.62 C129.81,26.62 127.24,26.09 126.07,24.28 L126.07,33.1 L122,33.1 L122,9.72 L126.08,9.72 L126.07,9.72 Z M135.79,18 C135.79,15.4153074 133.694693,13.32 131.11,13.32 C128.525307,13.32 126.43,15.4153074 126.43,18 C126.43,20.5846926 128.525307,22.68 131.11,22.68 C133.694693,22.68 135.79,20.5846926 135.79,18 Z" id="Combined-Shape" fill="#36314B"></path>
        <path d="M146.42,9.72 L146.42,12 C147.674711,10.3104841 149.665781,9.32797509 151.77,9.36 C154.062712,9.29880467 156.277191,10.1959418 157.880831,11.83564 C159.484471,13.4753382 160.332153,15.7092156 160.22,18 C160.22,22.81 157.22,26.62 151.9,26.62 C150.16,26.62 147.59,26.09 146.42,24.28 L146.42,33.1 L142.34,33.1 L142.34,9.72 L146.42,9.72 L146.42,9.72 Z M156.14,18 C156.14,15.4153074 154.044693,13.32 151.46,13.32 C148.875307,13.32 146.78,15.4153074 146.78,18 C146.78,20.5846926 148.875307,22.68 151.46,22.68 C154.044693,22.68 156.14,20.5846926 156.14,18 Z" id="Combined-Shape" fill="#36314B"></path>
        <polygon id="Shape" fill="#36314B" points="60.66 9.71 46.02 9.71 46.01 9.71 46.01 13.72 53.13 13.72 44.24 26.18 59.74 26.18 59.74 22.17 51.67 22.17"></polygon>
        <path d="M17.95,0 C3.9,0 0,3.9 0,17.95 C0,32 3.9,35.89 17.95,35.89 C32,35.89 35.89,32 35.89,17.95 C35.89,3.9 32,0 17.95,0 Z" id="Path" fill="#D33969"></path>
        <path d="M11.82,7.63 L17.74,7.63 C16.6578683,8.83283271 16.040819,10.3825485 16,12 C15.9015576,14.2893488 13.9822935,16.0749739 11.6918018,16.0082171 C9.40131005,15.9414602 7.5893003,14.0470864 7.62435875,11.7558903 C7.65941719,9.46469413 9.52853811,7.62664666 11.82,7.63 L11.82,7.63 Z" id="Path" fill="#FFFFFF"></path>
        <path d="M16.14,24.06 C16.1123762,26.3884387 14.2121163,28.2588766 11.8835319,28.2496685 C9.55494751,28.2404604 7.66953962,26.3550525 7.6603315,24.0264681 C7.65112338,21.6978837 9.52156127,19.7976238 11.85,19.77 C13.9392055,19.7242684 15.9361486,18.9005294 17.45,17.46 C18.8905294,15.9461486 19.7142684,13.9492055 19.76,11.86 C19.7875371,9.52501962 21.6978697,7.65182611 24.0329407,7.67013027 C26.3680117,7.68843443 28.2487442,9.59134535 28.2396732,11.9264705 C28.2306022,14.2615956 26.3351427,16.1498376 24,16.15 C21.9107945,16.1957316 19.9138514,17.0194706 18.4,18.46 C16.9777114,19.9814537 16.1721531,21.9775273 16.14,24.06 Z" id="Path" fill="#FFFFFF"></path>
        <path d="M24.08,28.28 L18.16,28.28 C19.2348705,27.0742875 19.8447052,25.5248819 19.88,23.91 C19.9783409,21.6232474 21.8935478,19.8385654 24.1815455,19.9016128 C26.4695432,19.9646602 28.283562,21.8521037 28.2558232,24.1408017 C28.2280843,26.4294998 26.3688536,28.2724237 24.08,28.28 L24.08,28.28 Z" id="Path" fill="#FFFFFF"></path>
    </g>
</svg>