<svg width="880px" height="263px" viewBox="0 0 880 263" version="1.1" xmlns="http://www.w3.org/2000/svg" xmlns:xlink="http://www.w3.org/1999/xlink">
    <defs>
        <rect id="path-1" x="0" y="0" width="880" height="263"></rect>
    </defs>
    <g>
        <mask id="mask-2" fill="white">
            <use xlink:href="#path-1"></use>
        </mask>
        <path d="M893.0146,344.4288 C885.6006,350.8798 877.8236,352.8288 869.2146,349.2758 C860.5246,345.6878 856.0486,338.8058 855.5766,329.5228 C854.3646,305.6998 838.2496,289.6498 814.8426,289.1568 C802.9926,288.9078 793.1186,278.8378 793.2346,267.1158 C793.3486,255.4198 803.0686,245.6258 814.8116,245.3738 C826.2126,245.1288 836.4456,254.9378 836.8806,266.6368 C837.2796,277.3248 840.5276,286.9318 847.9606,294.7508 C856.0906,303.3008 866.3946,306.8508 878.0476,307.2958 C894.6946,307.9298 904.4856,325.6378 896.2416,340.0178 C895.2376,341.7688 893.8506,343.2998 893.0146,344.4288" id="Fill-1" fill="#7CB83F" mask="url(#mask-2)"></path>
        <path d="M957.6367,280.001 C950.2227,286.451 942.4467,288.401 933.8377,284.848 C925.1467,281.26 920.6717,274.378 920.1987,265.095 C918.9877,241.272 902.8727,225.222 879.4657,224.729 C867.6157,224.48 857.7417,214.409 857.8567,202.688 C857.9707,190.991 867.6907,181.197 879.4337,180.945 C890.8357,180.7 901.0677,190.51 901.5037,202.209 C901.9017,212.897 905.1497,222.504 912.5837,230.322 C920.7137,238.873 931.0167,242.423 942.6707,242.867 C959.3167,243.502 969.1077,261.21 960.8647,275.59 C959.8597,277.341 958.4727,278.872 957.6367,280.001" id="Fill-3" fill="#914291" mask="url(#mask-2)"></path>
        <path d="M955.6602,343.9844 C948.2462,350.4354 940.4692,352.3854 931.8602,348.8324 C923.1702,345.2444 918.6942,338.3624 918.2222,329.0794 C917.0102,305.2564 900.8952,289.2064 877.4892,288.7134 C865.6382,288.4634 855.7642,278.3934 855.8802,266.6714 C855.9942,254.9754 865.7142,245.1814 877.4572,244.9294 C888.8582,244.6844 899.0912,254.4944 899.5262,266.1924 C899.9252,276.8814 903.1732,286.4884 910.6062,294.3064 C918.7372,302.8564 929.0402,306.4074 940.6942,306.8514 C957.3402,307.4854 967.1312,325.1934 958.8872,339.5744 C957.8832,341.3254 956.4962,342.8554 955.6602,343.9844" id="Fill-5" fill="#52B9B4" mask="url(#mask-2)"></path>
        <path d="M521.7813,340.4659 C514.3673,346.9169 506.5903,348.8669 497.9813,345.3129 C489.2913,341.7249 484.8153,334.8429 484.3433,325.5599 C483.1313,301.7369 467.0173,285.6869 443.6103,285.1939 C431.7593,284.9449 421.8853,274.8749 422.0013,263.1529 C422.1143,251.4569 431.8353,241.6629 443.5783,241.4109 C454.9803,241.1659 465.2123,250.9749 465.6483,262.6739 C466.0463,273.3619 469.2943,282.9689 476.7273,290.7879 C484.8583,299.3379 495.1613,302.8879 506.8133,303.3329 C523.4613,303.9669 533.2523,321.6749 525.0083,336.0549 C524.0043,337.8059 522.6173,339.3369 521.7813,340.4659" id="Fill-7" fill="#914291" mask="url(#mask-2)"></path>
        <path d="M602.5283,72.9996 C614.3943,72.9996 624.0143,82.6186 624.0143,94.4856 C624.0143,106.3516 614.3943,115.9706 602.5283,115.9706 C590.6623,115.9706 581.0433,106.3516 581.0433,94.4856 C581.0433,82.6186 590.6623,72.9996 602.5283,72.9996" id="Fill-9" fill="#52B9B4" mask="url(#mask-2)"></path>
        <path d="M893.6025,117.2447 C900.0535,124.6587 902.0025,132.4357 898.4495,141.0437 C894.8615,149.7347 887.9795,154.2097 878.6965,154.6827 C854.8735,155.8947 838.8235,172.0087 838.3305,195.4157 C838.0815,207.2667 828.0115,217.1397 816.2895,217.0247 C804.5935,216.9117 794.7995,207.1907 794.5465,195.4477 C794.3025,184.0457 804.1115,173.8137 815.8105,173.3777 C826.4985,172.9797 836.1055,169.7317 843.9245,162.2977 C852.4745,154.1677 856.0245,143.8647 856.4695,132.2107 C857.1035,115.5647 874.8115,105.7737 889.1915,114.0177 C890.9425,115.0217 892.4735,116.4087 893.6025,117.2447" id="Fill-12" fill="#E75D1E" mask="url(#mask-2)"></path>
        <path d="M956.5615,124.7598 C963.0115,132.1738 964.9615,139.9508 961.4085,148.5588 C957.8205,157.2498 950.9385,161.7248 941.6555,162.1978 C917.8325,163.4098 901.7825,179.5238 901.2895,202.9308 C901.0405,214.7818 890.9695,224.6548 879.2485,224.5398 C867.5515,224.4258 857.7575,214.7058 857.5055,202.9628 C857.2605,191.5608 867.0705,181.3288 878.7695,180.8928 C889.4575,180.4948 899.0645,177.2468 906.8825,169.8128 C915.4325,161.6828 918.9835,151.3798 919.4275,139.7258 C920.0625,123.0798 937.7705,113.2888 952.1505,121.5328 C953.9015,122.5368 955.4325,123.9238 956.5615,124.7598" id="Fill-14" fill="#D53668" mask="url(#mask-2)"></path>
        <path d="M670.6162,124.3057 C678.0302,117.8547 685.8062,115.9047 694.4152,119.4587 C703.1052,123.0467 707.5812,129.9287 708.0542,139.2117 C709.2652,163.0337 725.3802,179.0847 748.7872,179.5767 C760.6372,179.8267 770.5112,189.8967 770.3952,201.6187 C770.2822,213.3147 760.5612,223.1087 748.8192,223.3607 C737.4172,223.6057 727.1842,213.7967 726.7492,202.0977 C726.3502,191.4087 723.1022,181.8027 715.6692,173.9837 C707.5392,165.4337 697.2352,161.8837 685.5822,161.4387 C668.9352,160.8047 659.1442,143.0967 667.3882,128.7167 C668.3922,126.9657 669.7802,125.4347 670.6162,124.3057" id="Fill-17" fill="#E75D1E" mask="url(#mask-2)"></path>
        <path d="M738.3721,118.4307 C745.7861,111.9797 753.5631,110.0297 762.1711,113.5837 C770.8621,117.1717 775.3371,124.0537 775.8101,133.3367 C777.0221,157.1597 793.1361,173.2097 816.5431,173.7027 C828.3931,173.9517 838.2671,184.0217 838.1521,195.7437 C838.0381,207.4397 828.3181,217.2337 816.5751,217.4857 C805.1731,217.7307 794.9411,207.9217 794.5051,196.2227 C794.1071,185.5347 790.8591,175.9277 783.4251,168.1087 C775.2951,159.5587 764.9921,156.0087 753.3381,155.5637 C736.6921,154.9297 726.9011,137.2217 735.1451,122.8417 C736.1491,121.0907 737.5361,119.5597 738.3721,118.4307" id="Fill-19" fill="#F2B836" mask="url(#mask-2)"></path>
        <path d="M672.875,190.2247 C680.289,183.7737 688.065,181.8247 696.674,185.3777 C705.365,188.9657 709.84,195.8477 710.313,205.1307 C711.524,228.9537 727.639,245.0037 751.046,245.4967 C762.896,245.7457 772.77,255.8157 772.655,267.5377 C772.541,279.2337 762.821,289.0277 751.078,289.2797 C739.676,289.5247 729.444,279.7157 729.008,268.0167 C728.61,257.3287 725.362,247.7217 717.928,239.9027 C709.798,231.3527 699.495,227.8027 687.841,227.3577 C671.194,226.7237 661.404,209.0157 669.647,194.6357 C670.651,192.8847 672.039,191.3537 672.875,190.2247" id="Fill-21" fill="#D53668" mask="url(#mask-2)"></path>
        <path d="M608.7529,254.6505 C616.1669,248.2005 623.9439,246.2505 632.5519,249.8035 C641.2429,253.3915 645.7179,260.2735 646.1909,269.5565 C647.4029,293.3795 663.5179,309.4295 686.9239,309.9225 C698.7749,310.1715 708.6489,320.2425 708.5329,331.9635 C708.4189,343.6605 698.6989,353.4545 686.9559,353.7065 C675.5539,353.9515 665.3219,344.1415 664.8859,332.4425 C664.4879,321.7545 661.2399,312.1475 653.8069,304.3295 C645.6759,295.7795 635.3729,292.2285 623.7189,291.7845 C607.0719,291.1495 597.2819,273.4415 605.5259,259.0615 C606.5299,257.3105 607.9169,255.7805 608.7529,254.6505" id="Fill-23" fill="#E75D1E" mask="url(#mask-2)"></path>
        <path d="M608.7324,186.0616 C616.1454,179.6106 623.9224,177.6606 632.5314,181.2136 C641.2214,184.8026 645.6974,191.6846 646.1704,200.9676 C647.3814,224.7896 663.4964,240.8406 686.9034,241.3326 C698.7534,241.5826 708.6274,251.6526 708.5114,263.3746 C708.3984,275.0706 698.6774,284.8646 686.9344,285.1166 C675.5334,285.3616 665.3004,275.5526 664.8654,263.8536 C664.4664,253.1646 661.2184,243.5586 653.7854,235.7396 C645.6554,227.1896 635.3524,223.6396 623.6984,223.1946 C607.0504,222.5606 597.2604,204.8526 605.5044,190.4726 C606.5084,188.7216 607.8954,187.1906 608.7324,186.0616" id="Fill-25" fill="#52B9B4" mask="url(#mask-2)"></path>
        <path d="M484.5889,186.4444 C492.0029,179.9934 499.7799,178.0434 508.3879,181.5964 C517.0789,185.1844 521.5539,192.0674 522.0269,201.3494 C523.2389,225.1724 539.3539,241.2224 562.7599,241.7154 C574.6109,241.9654 584.4849,252.0354 584.3689,263.7574 C584.2549,275.4534 574.5349,285.2474 562.7919,285.4994 C551.3909,285.7444 541.1579,275.9344 540.7219,264.2364 C540.3239,253.5474 537.0759,243.9414 529.6429,236.1224 C521.5119,227.5724 511.2089,224.0214 499.5559,223.5774 C482.9089,222.9434 473.1179,205.2354 481.3619,190.8544 C482.3659,189.1034 483.7529,187.5734 484.5889,186.4444" id="Fill-27" fill="#52B9B4" mask="url(#mask-2)"></path>
        <path d="M701.749,123.6568 C708.2,131.0708 710.149,138.8478 706.596,147.4558 C703.008,156.1468 696.126,160.6218 686.843,161.0948 C663.02,162.3068 646.97,178.4208 646.478,201.8278 C646.228,213.6788 636.158,223.5518 624.436,223.4368 C612.741,223.3238 602.946,213.6028 602.693,201.8598 C602.449,190.4578 612.258,180.2258 623.957,179.7898 C634.645,179.3918 644.252,176.1438 652.071,168.7098 C660.621,160.5798 664.171,150.2768 664.616,138.6228 C665.25,121.9768 682.958,112.1858 697.338,120.4298 C699.089,121.4338 700.62,122.8208 701.749,123.6568" id="Fill-29" fill="#7CB83F" mask="url(#mask-2)"></path>
        <path d="M639.9053,186.0577 C646.3563,193.4717 648.3053,201.2477 644.7523,209.8567 C641.1643,218.5467 634.2823,223.0227 624.9993,223.4957 C601.1763,224.7067 585.1263,240.8217 584.6343,264.2287 C584.3843,276.0787 574.3143,285.9527 562.5923,285.8367 C550.8963,285.7237 541.1023,276.0027 540.8503,264.2607 C540.6053,252.8587 550.4143,242.6257 562.1133,242.1907 C572.8013,241.7917 582.4083,238.5437 590.2273,231.1107 C598.7773,222.9807 602.3273,212.6777 602.7723,201.0247 C603.4063,184.3767 621.1143,174.5857 635.4943,182.8297 C637.2453,183.8337 638.7763,185.2217 639.9053,186.0577" id="Fill-31" fill="#914291" mask="url(#mask-2)"></path>
        <path d="M576.4814,123.1544 C582.9324,130.5684 584.8824,138.3454 581.3294,146.9534 C577.7404,155.6444 570.8584,160.1194 561.5754,160.5924 C537.7534,161.8044 521.7024,177.9184 521.2104,201.3254 C520.9604,213.1764 510.8904,223.0504 499.1684,222.9344 C487.4724,222.8204 477.6784,213.1004 477.4264,201.3574 C477.1814,189.9554 486.9904,179.7234 498.6894,179.2874 C509.3784,178.8894 518.9844,175.6414 526.8034,168.2074 C535.3534,160.0774 538.9034,149.7744 539.3484,138.1214 C539.9824,121.4744 557.6904,111.6834 572.0704,119.9274 C573.8214,120.9314 575.3524,122.3184 576.4814,123.1544" id="Fill-33" fill="#F2B836" mask="url(#mask-2)"></path>
        <path d="M564.0674,223.1075 C552.2014,223.1075 542.5814,213.4885 542.5814,201.6225 C542.5814,189.7555 552.2014,180.1365 564.0674,180.1365 C575.9334,180.1365 585.5534,189.7555 585.5534,201.6225 C585.5534,213.4885 575.9334,223.1075 564.0674,223.1075" id="Fill-35" fill="#D53668" mask="url(#mask-2)"></path>
        <path d="M500.5488,284.044 C488.6828,284.044 479.0638,274.425 479.0638,262.558 C479.0638,250.691 488.6828,241.072 500.5488,241.072 C512.4148,241.072 522.0348,250.691 522.0348,262.558 C522.0348,274.425 512.4148,284.044 500.5488,284.044" id="Fill-37" fill="#E75D1E" mask="url(#mask-2)"></path>
    </g>
</svg>