<svg width="542px" height="281px" viewBox="0 0 542 281" version="1.1" xmlns="http://www.w3.org/2000/svg" xmlns:xlink="http://www.w3.org/1999/xlink">
    <g>
        <g>
            <path d="M471.0146,271.4288 C463.6006,277.8798 455.8236,279.8288 447.2146,276.2758 C438.5246,272.6878 434.0486,265.8058 433.5766,256.5228 C432.3646,232.6998 416.2496,216.6498 392.8426,216.1568 C380.9926,215.9078 371.1186,205.8378 371.2346,194.1158 C371.3486,182.4198 381.0686,172.6258 392.8116,172.3738 C404.2126,172.1288 414.4456,181.9378 414.8806,193.6368 C415.2796,204.3248 418.5276,213.9318 425.9606,221.7508 C434.0906,230.3008 444.3946,233.8508 456.0476,234.2958 C472.6946,234.9298 482.4856,252.6378 474.2416,267.0178 C473.2376,268.7688 471.8506,270.2998 471.0146,271.4288" id="Fill-1" fill="#7CB83F"></path>
            <path d="M535.6367,207.001 C528.2227,213.451 520.4467,215.401 511.8377,211.848 C503.1467,208.26 498.6717,201.378 498.1987,192.095 C496.9877,168.272 480.8727,152.222 457.4657,151.729 C445.6157,151.48 435.7417,141.409 435.8567,129.688 C435.9707,117.991 445.6907,108.197 457.4337,107.945 C468.8357,107.7 479.0677,117.51 479.5037,129.209 C479.9017,139.897 483.1497,149.504 490.5837,157.322 C498.7137,165.873 509.0167,169.423 520.6707,169.867 C537.3167,170.502 547.1077,188.21 538.8647,202.59 C537.8597,204.341 536.4727,205.872 535.6367,207.001" id="Fill-3" fill="#914291"></path>
            <path d="M533.6602,270.9844 C526.2462,277.4354 518.4692,279.3854 509.8602,275.8324 C501.1702,272.2444 496.6942,265.3624 496.2222,256.0794 C495.0102,232.2564 478.8952,216.2064 455.4892,215.7134 C443.6382,215.4634 433.7642,205.3934 433.8802,193.6714 C433.9942,181.9754 443.7142,172.1814 455.4572,171.9294 C466.8582,171.6844 477.0912,181.4944 477.5262,193.1924 C477.9252,203.8814 481.1732,213.4884 488.6062,221.3064 C496.7372,229.8564 507.0402,233.4074 518.6942,233.8514 C535.3402,234.4854 545.1312,252.1934 536.8872,266.5744 C535.8832,268.3254 534.4962,269.8554 533.6602,270.9844" id="Fill-5" fill="#52B9B4"></path>
            <path d="M99.7813,267.4659 C92.3673,273.9169 84.5903,275.8669 75.9813,272.3129 C67.2913,268.7249 62.8153,261.8429 62.3433,252.5599 C61.1313,228.7369 45.0173,212.6869 21.6103,212.1939 C9.7593,211.9449 -0.1147,201.8749 0.0013,190.1529 C0.1143,178.4569 9.8353,168.6629 21.5783,168.4109 C32.9803,168.1659 43.2123,177.9749 43.6483,189.6739 C44.0463,200.3619 47.2943,209.9689 54.7273,217.7879 C62.8583,226.3379 73.1613,229.8879 84.8133,230.3329 C101.4613,230.9669 111.2523,248.6749 103.0083,263.0549 C102.0043,264.8059 100.6173,266.3369 99.7813,267.4659" id="Fill-7" fill="#914291"></path>
            <path d="M180.5283,-0.0004 C192.3943,-0.0004 202.0143,9.6186 202.0143,21.4856 C202.0143,33.3516 192.3943,42.9706 180.5283,42.9706 C168.6623,42.9706 159.0433,33.3516 159.0433,21.4856 C159.0433,9.6186 168.6623,-0.0004 180.5283,-0.0004" id="Fill-9" fill="#52B9B4"></path>
            <path d="M471.6025,44.2447 C478.0535,51.6587 480.0025,59.4357 476.4495,68.0437 C472.8615,76.7347 465.9795,81.2097 456.6965,81.6827 C432.8735,82.8947 416.8235,99.0087 416.3305,122.4157 C416.0815,134.2667 406.0115,144.1397 394.2895,144.0247 C382.5935,143.9117 372.7995,134.1907 372.5465,122.4477 C372.3025,111.0457 382.1115,100.8137 393.8105,100.3777 C404.4985,99.9797 414.1055,96.7317 421.9245,89.2977 C430.4745,81.1677 434.0245,70.8647 434.4695,59.2107 C435.1035,42.5647 452.8115,32.7737 467.1915,41.0177 C468.9425,42.0217 470.4735,43.4087 471.6025,44.2447" id="Fill-12" fill="#E75D1E"></path>
            <path d="M534.5615,51.7598 C541.0115,59.1738 542.9615,66.9508 539.4085,75.5588 C535.8205,84.2498 528.9385,88.7248 519.6555,89.1978 C495.8325,90.4098 479.7825,106.5238 479.2895,129.9308 C479.0405,141.7818 468.9695,151.6548 457.2485,151.5398 C445.5515,151.4258 435.7575,141.7058 435.5055,129.9628 C435.2605,118.5608 445.0705,108.3288 456.7695,107.8928 C467.4575,107.4948 477.0645,104.2468 484.8825,96.8128 C493.4325,88.6828 496.9835,78.3798 497.4275,66.7258 C498.0625,50.0798 515.7705,40.2888 530.1505,48.5328 C531.9015,49.5368 533.4325,50.9238 534.5615,51.7598" id="Fill-14" fill="#D53668"></path>
            <path d="M248.6162,51.3057 C256.0302,44.8547 263.8062,42.9047 272.4152,46.4587 C281.1052,50.0467 285.5812,56.9287 286.0542,66.2117 C287.2652,90.0337 303.3802,106.0847 326.7872,106.5767 C338.6372,106.8267 348.5112,116.8967 348.3952,128.6187 C348.2822,140.3147 338.5612,150.1087 326.8192,150.3607 C315.4172,150.6057 305.1842,140.7967 304.7492,129.0977 C304.3502,118.4087 301.1022,108.8027 293.6692,100.9837 C285.5392,92.4337 275.2352,88.8837 263.5822,88.4387 C246.9352,87.8047 237.1442,70.0967 245.3882,55.7167 C246.3922,53.9657 247.7802,52.4347 248.6162,51.3057" id="Fill-17" fill="#E75D1E"></path>
            <path d="M316.3721,45.4307 C323.7861,38.9797 331.5631,37.0297 340.1711,40.5837 C348.8621,44.1717 353.3371,51.0537 353.8101,60.3367 C355.0221,84.1597 371.1361,100.2097 394.5431,100.7027 C406.3931,100.9517 416.2671,111.0217 416.1521,122.7437 C416.0381,134.4397 406.3181,144.2337 394.5751,144.4857 C383.1731,144.7307 372.9411,134.9217 372.5051,123.2227 C372.1071,112.5347 368.8591,102.9277 361.4251,95.1087 C353.2951,86.5587 342.9921,83.0087 331.3381,82.5637 C314.6921,81.9297 304.9011,64.2217 313.1451,49.8417 C314.1491,48.0907 315.5361,46.5597 316.3721,45.4307" id="Fill-19" fill="#F2B836"></path>
            <path d="M250.875,117.2247 C258.289,110.7737 266.065,108.8247 274.674,112.3777 C283.365,115.9657 287.84,122.8477 288.313,132.1307 C289.524,155.9537 305.639,172.0037 329.046,172.4967 C340.896,172.7457 350.77,182.8157 350.655,194.5377 C350.541,206.2337 340.821,216.0277 329.078,216.2797 C317.676,216.5247 307.444,206.7157 307.008,195.0167 C306.61,184.3287 303.362,174.7217 295.928,166.9027 C287.798,158.3527 277.495,154.8027 265.841,154.3577 C249.194,153.7237 239.404,136.0157 247.647,121.6357 C248.651,119.8847 250.039,118.3537 250.875,117.2247" id="Fill-21" fill="#D53668"></path>
            <path d="M186.7529,181.6505 C194.1669,175.2005 201.9439,173.2505 210.5519,176.8035 C219.2429,180.3915 223.7179,187.2735 224.1909,196.5565 C225.4029,220.3795 241.5179,236.4295 264.9239,236.9225 C276.7749,237.1715 286.6489,247.2425 286.5329,258.9635 C286.4189,270.6605 276.6989,280.4545 264.9559,280.7065 C253.5539,280.9515 243.3219,271.1415 242.8859,259.4425 C242.4879,248.7545 239.2399,239.1475 231.8069,231.3295 C223.6759,222.7795 213.3729,219.2285 201.7189,218.7845 C185.0719,218.1495 175.2819,200.4415 183.5259,186.0615 C184.5299,184.3105 185.9169,182.7805 186.7529,181.6505" id="Fill-23" fill="#E75D1E"></path>
            <path d="M186.7324,113.0616 C194.1454,106.6106 201.9224,104.6606 210.5314,108.2136 C219.2214,111.8026 223.6974,118.6846 224.1704,127.9676 C225.3814,151.7896 241.4964,167.8406 264.9034,168.3326 C276.7534,168.5826 286.6274,178.6526 286.5114,190.3746 C286.3984,202.0706 276.6774,211.8646 264.9344,212.1166 C253.5334,212.3616 243.3004,202.5526 242.8654,190.8536 C242.4664,180.1646 239.2184,170.5586 231.7854,162.7396 C223.6554,154.1896 213.3524,150.6396 201.6984,150.1946 C185.0504,149.5606 175.2604,131.8526 183.5044,117.4726 C184.5084,115.7216 185.8954,114.1906 186.7324,113.0616" id="Fill-25" fill="#52B9B4"></path>
            <path d="M62.5889,113.4444 C70.0029,106.9934 77.7799,105.0434 86.3879,108.5964 C95.0789,112.1844 99.5539,119.0674 100.0269,128.3494 C101.2389,152.1724 117.3539,168.2224 140.7599,168.7154 C152.6109,168.9654 162.4849,179.0354 162.3689,190.7574 C162.2549,202.4534 152.5349,212.2474 140.7919,212.4994 C129.3909,212.7444 119.1579,202.9344 118.7219,191.2364 C118.3239,180.5474 115.0759,170.9414 107.6429,163.1224 C99.5119,154.5724 89.2089,151.0214 77.5559,150.5774 C60.9089,149.9434 51.1179,132.2354 59.3619,117.8544 C60.3659,116.1034 61.7529,114.5734 62.5889,113.4444" id="Fill-27" fill="#52B9B4"></path>
            <path d="M279.749,50.6568 C286.2,58.0708 288.149,65.8478 284.596,74.4558 C281.008,83.1468 274.126,87.6218 264.843,88.0948 C241.02,89.3068 224.97,105.4208 224.478,128.8278 C224.228,140.6788 214.158,150.5518 202.436,150.4368 C190.741,150.3238 180.946,140.6028 180.693,128.8598 C180.449,117.4578 190.258,107.2258 201.957,106.7898 C212.645,106.3918 222.252,103.1438 230.071,95.7098 C238.621,87.5798 242.171,77.2768 242.616,65.6228 C243.25,48.9768 260.958,39.1858 275.338,47.4298 C277.089,48.4338 278.62,49.8208 279.749,50.6568" id="Fill-29" fill="#7CB83F"></path>
            <path d="M217.9053,113.0577 C224.3563,120.4717 226.3053,128.2477 222.7523,136.8567 C219.1643,145.5467 212.2823,150.0227 202.9993,150.4957 C179.1763,151.7067 163.1263,167.8217 162.6343,191.2287 C162.3843,203.0787 152.3143,212.9527 140.5923,212.8367 C128.8963,212.7237 119.1023,203.0027 118.8503,191.2607 C118.6053,179.8587 128.4143,169.6257 140.1133,169.1907 C150.8013,168.7917 160.4083,165.5437 168.2273,158.1107 C176.7773,149.9807 180.3273,139.6777 180.7723,128.0247 C181.4063,111.3767 199.1143,101.5857 213.4943,109.8297 C215.2453,110.8337 216.7763,112.2217 217.9053,113.0577" id="Fill-31" fill="#914291"></path>
            <path d="M154.4814,50.1544 C160.9324,57.5684 162.8824,65.3454 159.3294,73.9534 C155.7404,82.6444 148.8584,87.1194 139.5754,87.5924 C115.7534,88.8044 99.7024,104.9184 99.2104,128.3254 C98.9604,140.1764 88.8904,150.0504 77.1684,149.9344 C65.4724,149.8204 55.6784,140.1004 55.4264,128.3574 C55.1814,116.9554 64.9904,106.7234 76.6894,106.2874 C87.3784,105.8894 96.9844,102.6414 104.8034,95.2074 C113.3534,87.0774 116.9034,76.7744 117.3484,65.1214 C117.9824,48.4744 135.6904,38.6834 150.0704,46.9274 C151.8214,47.9314 153.3524,49.3184 154.4814,50.1544" id="Fill-33" fill="#F2B836"></path>
            <path d="M142.0674,150.1075 C130.2014,150.1075 120.5814,140.4885 120.5814,128.6225 C120.5814,116.7555 130.2014,107.1365 142.0674,107.1365 C153.9334,107.1365 163.5534,116.7555 163.5534,128.6225 C163.5534,140.4885 153.9334,150.1075 142.0674,150.1075" id="Fill-35" fill="#D53668"></path>
            <path d="M78.5488,211.044 C66.6828,211.044 57.0638,201.425 57.0638,189.558 C57.0638,177.691 66.6828,168.072 78.5488,168.072 C90.4148,168.072 100.0348,177.691 100.0348,189.558 C100.0348,201.425 90.4148,211.044 78.5488,211.044" id="Fill-37" fill="#E75D1E"></path>
        </g>
    </g>
</svg>