<svg id="Layer_1" data-name="Layer 1" xmlns="http://www.w3.org/2000/svg" viewBox="0 0 160.22 35.89"><defs><style>.cls-1{fill:#fff;}</style></defs><title>logo_footer</title><path class="cls-1" d="M79.75,9.72L69.7,33.07H65.22l3.07-7.15L61.71,9.72h4.74L69,16.84l1.57,4.64,1.7-4.54,3-7.22h4.51Z"/><path class="cls-1" d="M85.5,9.72v2.21a7.43,7.43,0,0,1,5.41-2.47c3.88,0,7,2.91,7,8.09v8.65H93.82V17.57c0-2.51-1.37-4.41-4-4.41a4.33,4.33,0,0,0-4.21,4.61v8.42h-4V9.72H85.5Z"/><path class="cls-1" d="M114.21,26.19V23.79c-0.94,1.94-3.51,2.87-5.35,2.91-4.88,0-8.49-3-8.49-8.75s3.78-8.65,8.59-8.62A6,6,0,0,1,114.21,12V9.72h4V26.19h-4Zm-9.76-8.25a4.72,4.72,0,0,0,4.88,5c6.42,0,6.42-10,0-10A4.69,4.69,0,0,0,104.45,17.94Z"/><path class="cls-1" d="M126.07,9.72V12a6.54,6.54,0,0,1,5.35-2.64A8.24,8.24,0,0,1,139.87,18c0,4.81-3,8.62-8.32,8.62-1.74,0-4.31-.53-5.48-2.34v8.82H122V9.72h4.08ZM135.79,18a4.68,4.68,0,1,0-9.36,0A4.68,4.68,0,0,0,135.79,18Z"/><path class="cls-1" d="M146.42,9.72V12a6.54,6.54,0,0,1,5.35-2.64A8.24,8.24,0,0,1,160.22,18c0,4.81-3,8.62-8.32,8.62-1.74,0-4.31-.53-5.48-2.34v8.82h-4.08V9.72h4.08ZM156.14,18a4.68,4.68,0,1,0-9.36,0A4.68,4.68,0,0,0,156.14,18Z"/><polygon class="cls-1" points="60.66 9.71 46.02 9.71 46.01 9.71 46.01 13.72 53.13 13.72 44.24 26.18 59.74 26.18 59.74 22.17 51.67 22.17 60.66 9.71"/><path class="cls-1" d="M79.75,9.72L69.7,33.07H65.22l3.07-7.15L61.71,9.72h4.74L69,16.84l1.57,4.64,1.7-4.54,3-7.22h4.51Z"/><path class="cls-1" d="M85.5,9.72v2.21a7.43,7.43,0,0,1,5.41-2.47c3.88,0,7,2.91,7,8.09v8.65H93.82V17.57c0-2.51-1.37-4.41-4-4.41a4.33,4.33,0,0,0-4.21,4.61v8.42h-4V9.72H85.5Z"/><path class="cls-1" d="M114.21,26.19V23.79c-0.94,1.94-3.51,2.87-5.35,2.91-4.88,0-8.49-3-8.49-8.75s3.78-8.65,8.59-8.62A6,6,0,0,1,114.21,12V9.72h4V26.19h-4Zm-9.76-8.25a4.72,4.72,0,0,0,4.88,5c6.42,0,6.42-10,0-10A4.69,4.69,0,0,0,104.45,17.94Z"/><path class="cls-1" d="M126.07,9.72V12a6.54,6.54,0,0,1,5.35-2.64A8.24,8.24,0,0,1,139.87,18c0,4.81-3,8.62-8.32,8.62-1.74,0-4.31-.53-5.48-2.34v8.82H122V9.72h4.08ZM135.79,18a4.68,4.68,0,1,0-9.36,0A4.68,4.68,0,0,0,135.79,18Z"/><path class="cls-1" d="M146.42,9.72V12a6.54,6.54,0,0,1,5.35-2.64A8.24,8.24,0,0,1,160.22,18c0,4.81-3,8.62-8.32,8.62-1.74,0-4.31-.53-5.48-2.34v8.82h-4.08V9.72h4.08ZM156.14,18a4.68,4.68,0,1,0-9.36,0A4.68,4.68,0,0,0,156.14,18Z"/><polygon class="cls-1" points="60.66 9.71 46.02 9.71 46.01 9.71 46.01 13.72 53.13 13.72 44.24 26.18 59.74 26.18 59.74 22.17 51.67 22.17 60.66 9.71"/><path class="cls-1" d="M17.95,0C3.9,0,0,3.9,0,17.95S3.9,35.89,17.95,35.89,35.89,32,35.89,17.95,32,0,17.95,0ZM11.82,7.63h5.92A6.79,6.79,0,0,0,16,12,4.19,4.19,0,1,1,11.82,7.63Zm4.32,16.43a4.24,4.24,0,1,1-4.29-4.29,8.39,8.39,0,0,0,5.6-2.31,8.39,8.39,0,0,0,2.31-5.6A4.24,4.24,0,1,1,24,16.15a8.39,8.39,0,0,0-5.6,2.31A8.39,8.39,0,0,0,16.14,24.06Zm7.94,4.22H18.16a6.79,6.79,0,0,0,1.72-4.37A4.19,4.19,0,1,1,24.08,28.28Z"/></svg>